<svg width="173" height="49" viewBox="0 0 173 49" fill="none" xmlns="http://www.w3.org/2000/svg">
<g clip-path="url(#clip0_256_4)">
<path d="M28.0533 11.806C31.0173 11.806 33.1319 12.534 34.3973 13.99C35.6799 15.446 36.3213 17.864 36.3213 21.244V35.388C36.3213 36.48 35.7753 37.026 34.6833 37.026C33.5913 37.026 33.0453 36.48 33.0453 35.388V21.244C33.0453 19.06 32.6553 17.4913 31.8753 16.538C31.1126 15.5673 29.8386 15.082 28.0533 15.082H25.8953C23.7286 15.082 22.1773 15.5673 21.2413 16.538C20.3053 17.4913 19.8373 19.06 19.8373 21.244V35.388C19.8373 36.48 19.2913 37.026 18.1993 37.026C17.1073 37.026 16.5613 36.48 16.5613 35.388V21.244C16.5613 19.06 16.1713 17.4913 15.3913 16.538C14.6286 15.5673 13.3546 15.082 11.5693 15.082H9.41128C7.24461 15.082 5.69328 15.5673 4.75728 16.538C3.82128 17.4913 3.35328 19.06 3.35328 21.244V35.388C3.35328 36.48 2.80728 37.026 1.71528 37.026C0.62328 37.026 0.0772796 36.48 0.0772796 35.388V13.47C0.0772796 12.378 0.62328 11.832 1.71528 11.832C2.80728 11.832 3.35328 12.378 3.35328 13.47V15.212C4.16795 13.9987 5.10395 13.132 6.16128 12.612C7.23595 12.0747 8.56195 11.806 10.1393 11.806H11.5693C13.4933 11.806 15.0273 12.118 16.1713 12.742C17.3326 13.3487 18.2339 14.354 18.8753 15.758C19.6726 14.3367 20.6173 13.3227 21.7093 12.716C22.8013 12.1093 24.1966 11.806 25.8953 11.806H28.0533Z" fill="#F1426C"/>
<path d="M59.1927 37C55.4487 37.3813 52.7447 37.572 51.0807 37.572C47.4407 37.572 44.5461 36.896 42.3967 35.544C40.2474 34.192 39.1727 31.748 39.1727 28.212V23.896C39.1727 20.464 40.3687 18.1587 42.7607 16.98C43.9047 16.3907 45.3607 16.096 47.1287 16.096C48.7581 16.096 50.4047 16.3733 52.0688 16.928C53.7327 17.448 55.1367 18.1413 56.2808 19.008C56.2808 17.1013 55.7261 15.5933 54.6167 14.484C53.5074 13.34 51.3754 12.768 48.2207 12.768L48.3767 10.532C51.7047 10.532 54.1487 11.0693 55.7087 12.144C57.3034 13.184 58.2741 14.432 58.6207 15.888C59.0021 17.344 59.1927 19.216 59.1927 21.504V37ZM56.2808 21.244C54.8594 20.5853 53.3341 20.0133 51.7048 19.528C50.1101 19.0427 48.6367 18.8 47.2847 18.8C43.7834 18.8 42.0327 20.5507 42.0327 24.052V28.576C42.0327 30.8293 42.8127 32.476 44.3727 33.516C45.9327 34.5213 48.1514 35.024 51.0287 35.024C52.5194 35.024 54.2701 34.8853 56.2808 34.608V21.244ZM64.1072 37C63.0152 37 62.4692 36.454 62.4692 35.362V2.394C62.4692 1.302 63.0152 0.755999 64.1072 0.755999C65.1992 0.755999 65.7452 1.302 65.7452 2.394V15.394C67.4612 13.0193 70.3472 11.832 74.4032 11.832H75.8592C79.1872 11.832 81.6225 12.612 83.1652 14.172C84.7252 15.7147 85.5052 18.15 85.5052 21.478V35.362C85.5052 36.454 84.9592 37 83.8672 37C82.7752 37 82.2292 36.454 82.2292 35.362V21.478C82.2292 19.0687 81.7612 17.4047 80.8252 16.486C79.9065 15.5673 78.2512 15.108 75.8592 15.108H74.4032C71.9245 15.108 69.9138 15.472 68.3712 16.2C66.8285 16.928 65.9532 18.0633 65.7452 19.606V35.362C65.7452 36.454 65.1992 37 64.1072 37ZM92.4955 7.256C91.1435 7.256 90.4675 6.57133 90.4675 5.202V3.902C90.4675 2.56733 91.1435 1.9 92.4955 1.9H93.7695C95.0695 1.9 95.7195 2.56733 95.7195 3.902V5.202C95.7195 6.57133 95.0695 7.256 93.7695 7.256H92.4955ZM93.1195 37C92.0275 37 91.4815 36.454 91.4815 35.362V13.47C91.4815 12.378 92.0275 11.832 93.1195 11.832C94.2115 11.832 94.7575 12.378 94.7575 13.47V35.362C94.7575 36.454 94.2115 37 93.1195 37ZM102.835 47.4C101.743 47.4 101.197 46.854 101.197 45.762V13.47C101.197 12.378 101.743 11.832 102.835 11.832C103.927 11.832 104.473 12.378 104.473 13.47V15.212C105.305 14.1027 106.432 13.262 107.853 12.69C109.292 12.118 111.051 11.832 113.131 11.832H115.107C118.435 11.832 120.87 12.612 122.413 14.172C123.973 15.7147 124.753 18.15 124.753 21.478V27.354C124.753 30.6647 123.973 33.1 122.413 34.66C120.87 36.22 118.435 37 115.107 37H104.473V45.762C104.473 46.854 103.927 47.4 102.835 47.4ZM104.473 33.724H115.107C117.516 33.724 119.18 33.2647 120.099 32.346C121.018 31.41 121.477 29.746 121.477 27.354V21.478C121.477 19.0687 121.018 17.4047 120.099 16.486C119.18 15.5673 117.516 15.108 115.107 15.108H113.131C110.566 15.108 108.52 15.4807 106.995 16.226C105.487 16.9713 104.646 18.1327 104.473 19.71V33.724ZM131.949 37C130.857 37 130.311 36.454 130.311 35.362V13.47C130.311 12.378 130.857 11.832 131.949 11.832C133.041 11.832 133.587 12.378 133.587 13.47V16.798C134.54 15.186 135.849 13.9553 137.513 13.106C139.177 12.2567 141.127 11.832 143.363 11.832C144.455 11.832 145.001 12.378 145.001 13.47C145.001 14.562 144.455 15.108 143.363 15.108C140.312 15.108 137.955 15.758 136.291 17.058C134.644 18.358 133.743 20.1693 133.587 22.492V35.362C133.587 36.454 133.041 37 131.949 37ZM154.882 37C151.571 37 149.136 36.22 147.576 34.66C146.016 33.1 145.236 30.682 145.236 27.406V21.478C145.236 18.1327 146.016 15.6887 147.576 14.146C149.136 12.586 151.571 11.8147 154.882 11.832H159.146C162.474 11.832 164.909 12.612 166.452 14.172C168.012 15.7147 168.792 18.15 168.792 21.478V27.354C168.792 30.6647 168.012 33.1 166.452 34.66C164.909 36.22 162.474 37 159.146 37H154.882ZM148.512 27.406C148.512 29.7807 148.971 31.4273 149.89 32.346C150.826 33.2647 152.49 33.724 154.882 33.724H159.146C161.555 33.724 163.219 33.2647 164.138 32.346C165.057 31.41 165.516 29.746 165.516 27.354V21.478C165.516 19.0687 165.057 17.4047 164.138 16.486C163.219 15.5673 161.555 15.108 159.146 15.108H154.882C153.287 15.0907 152.022 15.2813 151.086 15.68C150.167 16.0613 149.509 16.72 149.11 17.656C148.711 18.5747 148.512 19.8487 148.512 21.478V27.406Z" fill="white"/>
<circle cx="169" cy="16" r="4" fill="#F1426C"/>
</g>
<defs>
<clipPath id="clip0_256_4">
<rect width="173" height="49" fill="white"/>
</clipPath>
</defs>
</svg>
